# Blender v2.76 (sub 0) OBJ File: 'cube.blend'
# www.blender.org
mtllib cube.mtl
o Cube
v 0.427083 -0.427083 -0.427083
v 0.427083 -0.427083 0.427083
v -0.427083 -0.427083 0.427083
v -0.427083 -0.427083 -0.427083
v 0.427083 0.427083 -0.427083
v 0.427083 0.427083 0.427084
v -0.427084 0.427083 0.427083
v -0.427083 0.427083 -0.427083
v 0.445312 -0.445312 0.000000
v 0.000000 -0.445312 -0.445313
v 0.445313 0.000000 -0.445312
v -0.000000 -0.445312 0.445312
v 0.445312 0.000000 0.445313
v -0.445312 -0.445312 -0.000000
v -0.445313 0.000000 0.445312
v -0.445312 0.000000 -0.445313
v 0.445312 0.445312 0.000000
v 0.000000 0.445312 -0.445312
v -0.000000 0.445312 0.445313
v -0.445313 0.445312 -0.000000
v 0.000000 0.000000 -0.500000
v -0.500000 0.000000 -0.000000
v -0.000000 0.000000 0.500000
v 0.500000 0.000000 0.000000
v -0.000000 0.500000 0.000000
v 0.000000 -0.500000 -0.000000
v 0.444010 -0.444010 0.244792
v -0.244792 -0.444010 -0.444010
v 0.444011 0.244792 -0.444010
v -0.244792 -0.444010 0.444010
v 0.444010 0.244792 0.444011
v -0.444010 -0.444010 -0.244792
v -0.444011 0.244792 0.444010
v -0.444010 0.244792 -0.444010
v 0.444010 0.444010 0.244792
v -0.244792 0.444010 -0.444010
v -0.244792 0.444010 0.444010
v -0.444010 0.444010 -0.244792
v 0.444010 -0.444010 -0.244792
v 0.244792 -0.444010 -0.444010
v 0.444010 -0.244792 -0.444010
v 0.244792 -0.444010 0.444010
v 0.444010 -0.244792 0.444011
v -0.444010 -0.444010 0.244792
v -0.444011 -0.244792 0.444010
v -0.444010 -0.244792 -0.444011
v 0.444010 0.444010 -0.244791
v 0.244792 0.444010 -0.444010
v 0.244791 0.444010 0.444011
v -0.444011 0.444010 0.244792
v -0.246094 0.000000 -0.496094
v 0.246094 0.000000 -0.496094
v 0.000000 0.246094 -0.496094
v 0.000000 -0.246094 -0.496094
v -0.496094 0.000000 -0.246094
v -0.496094 0.000000 0.246094
v -0.496094 -0.246094 -0.000000
v -0.496094 0.246094 -0.000000
v -0.246094 0.000000 0.496094
v 0.246094 0.000000 0.496094
v -0.000000 -0.246094 0.496094
v -0.000000 0.246094 0.496094
v 0.496094 0.000000 0.246094
v 0.496094 0.000000 -0.246094
v 0.496094 -0.246094 0.000000
v 0.496094 0.246094 0.000000
v -0.000000 0.496094 0.246094
v 0.000000 0.496094 -0.246094
v 0.246094 0.496094 0.000000
v -0.246094 0.496094 0.000000
v -0.246094 -0.496094 -0.000000
v 0.246094 -0.496094 -0.000000
v 0.000000 -0.496094 -0.246094
v -0.000000 -0.496094 0.246094
v 0.246094 -0.492188 0.246094
v 0.246094 -0.492188 -0.246094
v -0.246094 -0.492188 -0.246094
v -0.246094 0.492188 -0.246094
v 0.246094 0.492188 -0.246094
v 0.246094 0.492188 0.246094
v 0.492188 0.246094 -0.246094
v 0.492188 -0.246094 -0.246094
v 0.492187 -0.246094 0.246094
v 0.246094 0.246094 0.492188
v 0.246094 -0.246094 0.492188
v -0.246094 -0.246094 0.492187
v -0.492188 0.246094 0.246094
v -0.492188 -0.246094 0.246094
v -0.492187 -0.246094 -0.246094
v 0.246094 -0.246094 -0.492187
v 0.246094 0.246094 -0.492187
v -0.246094 0.246094 -0.492187
v -0.246094 -0.246094 -0.492188
v -0.492188 0.246094 -0.246094
v -0.246094 0.246094 0.492187
v 0.492187 0.246094 0.246094
v -0.246094 0.492188 0.246094
v -0.246094 -0.492188 0.246094
vt 0.750000 0.750000
vt 1.000000 0.750000
vt 1.000000 1.000000
vt 0.500000 0.750000
vt 0.500000 1.000000
vt 0.250000 1.000000
vt 0.500000 0.250000
vt 0.500000 0.500000
vt 0.250000 0.500000
vt 1.000000 0.250000
vt 1.000000 0.500000
vt 0.750000 0.500000
vt 0.750000 0.250000
vt 0.750000 0.000000
vt 1.000000 0.000000
vt 0.000000 0.250000
vt 0.250000 0.250000
vt 0.000000 0.000000
vt 0.250000 0.000000
vt 0.500000 0.000000
vt 0.250000 0.750000
vt 0.000000 1.000000
vt 0.000000 0.750000
vt 0.750000 1.000000
vt 0.000000 0.500000
vn -0.111500 -0.965400 0.235700
vn -0.235700 0.965400 0.111500
vn 0.965400 0.235700 0.111500
vn -0.111500 0.235700 0.965400
vn -0.965400 0.235700 -0.111500
vn -0.111500 -0.235700 -0.965400
vn -0.247000 0.006500 -0.969000
vn 0.015900 0.015900 -0.999700
vn 0.006500 -0.247000 -0.969000
vn -0.969000 -0.006500 -0.247000
vn -0.999700 -0.015900 0.015900
vn -0.969000 0.247000 0.006500
vn -0.247000 -0.006500 0.969000
vn 0.015900 -0.015900 0.999700
vn 0.006500 0.247000 0.969000
vn 0.969000 -0.006500 0.247000
vn 0.999700 -0.015900 -0.015900
vn 0.969000 0.247000 -0.006500
vn 0.006500 0.969000 0.247000
vn 0.015900 0.999700 -0.015900
vn -0.247000 0.969000 -0.006500
vn -0.247000 -0.969000 -0.006500
vn 0.015900 -0.999700 -0.015900
vn 0.006500 -0.969000 0.247000
vn 0.015900 -0.999700 0.015900
vn 0.236600 -0.971500 0.015400
vn 0.111500 -0.965400 0.235700
vn 0.015400 -0.971500 -0.236600
vn 0.235700 -0.965400 -0.111500
vn 0.247000 -0.969000 -0.006500
vn -0.235700 -0.965400 -0.111500
vn -0.015400 -0.971500 -0.236600
vn -0.015900 -0.999700 -0.015900
vn -0.015900 0.999700 -0.015900
vn -0.015400 0.971500 -0.236600
vn -0.235700 0.965400 -0.111500
vn 0.236600 0.971500 -0.015400
vn 0.111500 0.965400 -0.235700
vn 0.006500 0.969000 -0.247000
vn 0.111500 0.965400 0.235700
vn 0.236600 0.971500 0.015400
vn 0.015900 0.999700 0.015900
vn 0.999700 0.015900 -0.015900
vn 0.971500 0.015400 -0.236600
vn 0.965400 0.235700 -0.111500
vn 0.971500 -0.236600 -0.015400
vn 0.965400 -0.111500 -0.235700
vn 0.969000 -0.006500 -0.247000
vn 0.965400 -0.111500 0.235700
vn 0.971500 -0.236600 0.015400
vn 0.999700 -0.015900 0.015900
vn 0.015900 0.015900 0.999700
vn 0.236600 0.015400 0.971500
vn 0.111500 0.235700 0.965400
vn 0.015400 -0.236600 0.971500
vn 0.235700 -0.111500 0.965400
vn 0.247000 -0.006500 0.969000
vn -0.235700 -0.111500 0.965400
vn -0.015400 -0.236600 0.971500
vn -0.015900 -0.015900 0.999700
vn -0.999700 0.015900 0.015900
vn -0.971500 0.015400 0.236600
vn -0.965400 0.235700 0.111500
vn -0.971500 -0.236600 0.015400
vn -0.965400 -0.111500 0.235700
vn -0.969000 -0.006500 0.247000
vn -0.965400 -0.111500 -0.235700
vn -0.971500 -0.236600 -0.015400
vn -0.999700 -0.015900 -0.015900
vn 0.015900 -0.015900 -0.999700
vn 0.236600 -0.015400 -0.971500
vn 0.111500 -0.235700 -0.965400
vn 0.015400 0.236600 -0.971500
vn 0.235700 0.111500 -0.965400
vn 0.247000 0.006500 -0.969000
vn -0.235700 0.111500 -0.965400
vn -0.015400 0.236600 -0.971500
vn -0.015900 0.015900 -0.999700
vn -0.236600 -0.015400 -0.971500
vn -0.015900 -0.015900 -0.999700
vn -0.006500 -0.247000 -0.969000
vn -0.971500 0.015400 -0.236600
vn -0.999700 0.015900 -0.015900
vn -0.969000 0.247000 -0.006500
vn -0.236600 0.015400 0.971500
vn -0.015900 0.015900 0.999700
vn -0.006500 0.247000 0.969000
vn 0.971500 0.015400 0.236600
vn 0.999700 0.015900 0.015900
vn 0.969000 0.247000 0.006500
vn -0.015400 0.971500 0.236600
vn -0.015900 0.999700 0.015900
vn -0.247000 0.969000 0.006500
vn -0.236600 -0.971500 0.015400
vn -0.015900 -0.999700 0.015900
vn -0.006500 -0.969000 0.247000
vn -0.235700 -0.965400 0.111500
vn -0.111500 0.965400 0.235700
vn 0.965400 0.111500 0.235700
vn -0.235700 0.111500 0.965400
vn -0.965400 0.111500 -0.235700
vn -0.235700 -0.111500 -0.965400
vn -0.236600 0.015400 -0.971500
vn 0.015400 -0.236600 -0.971500
vn -0.971500 -0.015400 -0.236600
vn -0.971500 0.236600 0.015400
vn -0.236600 -0.015400 0.971500
vn 0.015400 0.236600 0.971500
vn 0.971500 -0.015400 0.236600
vn 0.971500 0.236600 -0.015400
vn 0.015400 0.971500 0.236600
vn -0.236600 0.971500 -0.015400
vn -0.236600 -0.971500 -0.015400
vn 0.015400 -0.971500 0.236600
vn 0.247000 -0.969000 0.006500
vn 0.235700 -0.965400 0.111500
vn 0.006500 -0.969000 -0.247000
vn 0.111500 -0.965400 -0.235700
vn 0.236600 -0.971500 -0.015400
vn -0.111500 -0.965400 -0.235700
vn -0.006500 -0.969000 -0.247000
vn -0.006500 0.969000 -0.247000
vn -0.111500 0.965400 -0.235700
vn 0.247000 0.969000 -0.006500
vn 0.235700 0.965400 -0.111500
vn 0.015400 0.971500 -0.236600
vn 0.235700 0.965400 0.111500
vn 0.247000 0.969000 0.006500
vn 0.969000 0.006500 -0.247000
vn 0.965400 0.111500 -0.235700
vn 0.969000 -0.247000 -0.006500
vn 0.965400 -0.235700 -0.111500
vn 0.971500 -0.015400 -0.236600
vn 0.965400 -0.235700 0.111500
vn 0.969000 -0.247000 0.006500
vn 0.247000 0.006500 0.969000
vn 0.235700 0.111500 0.965400
vn 0.006500 -0.247000 0.969000
vn 0.111500 -0.235700 0.965400
vn 0.236600 -0.015400 0.971500
vn -0.111500 -0.235700 0.965400
vn -0.006500 -0.247000 0.969000
vn -0.969000 0.006500 0.247000
vn -0.965400 0.111500 0.235700
vn -0.969000 -0.247000 0.006500
vn -0.965400 -0.235700 0.111500
vn -0.971500 -0.015400 0.236600
vn -0.965400 -0.235700 -0.111500
vn -0.969000 -0.247000 -0.006500
vn 0.247000 -0.006500 -0.969000
vn 0.235700 -0.111500 -0.965400
vn 0.006500 0.247000 -0.969000
vn 0.111500 0.235700 -0.965400
vn 0.236600 0.015400 -0.971500
vn -0.111500 0.235700 -0.965400
vn -0.006500 0.247000 -0.969000
vn -0.247000 -0.006500 -0.969000
vn -0.015400 -0.236600 -0.971500
vn -0.969000 0.006500 -0.247000
vn -0.971500 0.236600 -0.015400
vn -0.247000 0.006500 0.969000
vn -0.015400 0.236600 0.971500
vn 0.969000 0.006500 0.247000
vn 0.971500 0.236600 0.015400
vn -0.006500 0.969000 0.247000
vn -0.236600 0.971500 0.015400
vn -0.247000 -0.969000 0.006500
vn -0.015400 -0.971500 0.236600
usemtl Material
s off
f 98/1/1 30/2/1 3/3/1
f 97/1/2 50/2/2 7/3/2
f 96/1/3 35/2/3 6/3/3
f 95/1/4 37/2/4 7/3/4
f 94/1/5 38/2/5 8/3/5
f 93/1/6 28/2/6 4/3/6
f 51/4/7 16/5/7 34/6/7
f 52/7/8 21/8/8 53/9/8
f 40/10/9 10/11/9 54/12/9
f 55/4/10 16/5/10 46/6/10
f 56/7/11 22/8/11 57/9/11
f 50/10/12 20/11/12 58/12/12
f 59/4/13 15/5/13 45/6/13
f 60/7/14 23/8/14 61/9/14
f 49/10/15 19/11/15 62/12/15
f 63/4/16 13/5/16 43/6/16
f 64/7/17 24/8/17 65/9/17
f 47/10/18 17/11/18 66/12/18
f 67/4/19 19/5/19 49/6/19
f 68/7/20 25/8/20 69/9/20
f 38/10/21 20/11/21 70/12/21
f 71/4/22 14/5/22 32/6/22
f 72/7/23 26/8/23 73/9/23
f 42/10/24 12/11/24 74/12/24
f 72/7/25 75/13/25 74/12/25
f 27/14/26 75/13/26 72/7/26
f 2/15/27 42/10/27 75/13/27
f 40/16/28 76/17/28 73/9/28
f 1/18/29 39/19/29 76/17/29
f 39/19/30 9/20/30 72/7/30
f 77/21/31 32/6/31 4/22/31
f 73/9/32 77/21/32 28/23/32
f 73/9/33 26/8/33 71/4/33
f 68/7/34 78/13/34 70/12/34
f 36/14/35 78/13/35 68/7/35
f 8/15/36 38/10/36 78/13/36
f 47/16/37 79/17/37 69/9/37
f 5/18/38 48/19/38 79/17/38
f 48/19/39 18/20/39 68/7/39
f 80/21/40 49/6/40 6/22/40
f 69/9/41 80/21/41 35/23/41
f 69/9/42 25/8/42 67/4/42
f 64/7/43 81/13/43 66/12/43
f 29/14/44 81/13/44 64/7/44
f 5/15/45 47/10/45 81/13/45
f 39/16/46 82/17/46 65/9/46
f 1/18/47 41/19/47 82/17/47
f 41/19/48 11/20/48 64/7/48
f 83/21/49 43/6/49 2/22/49
f 65/9/50 83/21/50 27/23/50
f 65/9/51 24/8/51 63/4/51
f 60/7/52 84/13/52 62/12/52
f 31/14/53 84/13/53 60/7/53
f 6/15/54 49/10/54 84/13/54
f 42/16/55 85/17/55 61/9/55
f 2/18/56 43/19/56 85/17/56
f 43/19/57 13/20/57 60/7/57
f 86/21/58 45/6/58 3/22/58
f 61/9/59 86/21/59 30/23/59
f 61/9/60 23/8/60 59/4/60
f 56/7/61 87/13/61 58/12/61
f 33/14/62 87/13/62 56/7/62
f 7/15/63 50/10/63 87/13/63
f 44/16/64 88/17/64 57/9/64
f 3/18/65 45/19/65 88/17/65
f 45/19/66 15/20/66 56/7/66
f 89/21/67 46/6/67 4/22/67
f 57/9/68 89/21/68 32/23/68
f 57/9/69 22/8/69 55/4/69
f 52/7/70 90/13/70 54/12/70
f 41/14/71 90/13/71 52/7/71
f 1/15/72 40/10/72 90/13/72
f 48/16/73 91/17/73 53/9/73
f 5/18/74 29/19/74 91/17/74
f 29/19/75 11/20/75 52/7/75
f 92/21/76 34/6/76 8/22/76
f 53/9/77 92/21/77 36/23/77
f 53/9/78 21/8/78 51/4/78
f 51/4/79 93/1/79 46/24/79
f 54/12/80 93/1/80 51/4/80
f 54/12/81 10/11/81 28/2/81
f 55/4/82 94/1/82 34/24/82
f 58/12/83 94/1/83 55/4/83
f 58/12/84 20/11/84 38/2/84
f 59/4/85 95/1/85 33/24/85
f 62/12/86 95/1/86 59/4/86
f 62/12/87 19/11/87 37/2/87
f 63/4/88 96/1/88 31/24/88
f 66/12/89 96/1/89 63/4/89
f 66/12/90 17/11/90 35/2/90
f 67/4/91 97/1/91 37/24/91
f 70/12/92 97/1/92 67/4/92
f 70/12/93 20/11/93 50/2/93
f 71/4/94 98/1/94 44/24/94
f 74/12/95 98/1/95 71/4/95
f 74/12/96 12/11/96 30/2/96
f 44/24/97 98/1/97 3/3/97
f 37/24/98 97/1/98 7/3/98
f 31/24/99 96/1/99 6/3/99
f 33/24/100 95/1/100 7/3/100
f 34/24/101 94/1/101 8/3/101
f 46/24/102 93/1/102 4/3/102
f 92/21/103 51/4/103 34/6/103
f 91/17/8 52/7/8 53/9/8
f 90/13/104 40/10/104 54/12/104
f 89/21/105 55/4/105 46/6/105
f 88/17/11 56/7/11 57/9/11
f 87/13/106 50/10/106 58/12/106
f 86/21/107 59/4/107 45/6/107
f 85/17/14 60/7/14 61/9/14
f 84/13/108 49/10/108 62/12/108
f 83/21/109 63/4/109 43/6/109
f 82/17/17 64/7/17 65/9/17
f 81/13/110 47/10/110 66/12/110
f 80/21/111 67/4/111 49/6/111
f 79/17/20 68/7/20 69/9/20
f 78/13/112 38/10/112 70/12/112
f 77/21/113 71/4/113 32/6/113
f 76/17/23 72/7/23 73/9/23
f 75/13/114 42/10/114 74/12/114
f 26/8/25 72/7/25 74/12/25
f 9/20/115 27/14/115 72/7/115
f 27/14/116 2/15/116 75/13/116
f 10/25/117 40/16/117 73/9/117
f 40/16/118 1/18/118 76/17/118
f 76/17/119 39/19/119 72/7/119
f 28/23/120 77/21/120 4/22/120
f 10/25/121 73/9/121 28/23/121
f 77/21/33 73/9/33 71/4/33
f 25/8/34 68/7/34 70/12/34
f 18/20/122 36/14/122 68/7/122
f 36/14/123 8/15/123 78/13/123
f 17/25/124 47/16/124 69/9/124
f 47/16/125 5/18/125 79/17/125
f 79/17/126 48/19/126 68/7/126
f 35/23/127 80/21/127 6/22/127
f 17/25/128 69/9/128 35/23/128
f 80/21/42 69/9/42 67/4/42
f 24/8/43 64/7/43 66/12/43
f 11/20/129 29/14/129 64/7/129
f 29/14/130 5/15/130 81/13/130
f 9/25/131 39/16/131 65/9/131
f 39/16/132 1/18/132 82/17/132
f 82/17/133 41/19/133 64/7/133
f 27/23/134 83/21/134 2/22/134
f 9/25/135 65/9/135 27/23/135
f 83/21/51 65/9/51 63/4/51
f 23/8/52 60/7/52 62/12/52
f 13/20/136 31/14/136 60/7/136
f 31/14/137 6/15/137 84/13/137
f 12/25/138 42/16/138 61/9/138
f 42/16/139 2/18/139 85/17/139
f 85/17/140 43/19/140 60/7/140
f 30/23/141 86/21/141 3/22/141
f 12/25/142 61/9/142 30/23/142
f 86/21/60 61/9/60 59/4/60
f 22/8/61 56/7/61 58/12/61
f 15/20/143 33/14/143 56/7/143
f 33/14/144 7/15/144 87/13/144
f 14/25/145 44/16/145 57/9/145
f 44/16/146 3/18/146 88/17/146
f 88/17/147 45/19/147 56/7/147
f 32/23/148 89/21/148 4/22/148
f 14/25/149 57/9/149 32/23/149
f 89/21/69 57/9/69 55/4/69
f 21/8/70 52/7/70 54/12/70
f 11/20/150 41/14/150 52/7/150
f 41/14/151 1/15/151 90/13/151
f 18/25/152 48/16/152 53/9/152
f 48/16/153 5/18/153 91/17/153
f 91/17/154 29/19/154 52/7/154
f 36/23/155 92/21/155 8/22/155
f 18/25/156 53/9/156 36/23/156
f 92/21/78 53/9/78 51/4/78
f 16/5/157 51/4/157 46/24/157
f 21/8/80 54/12/80 51/4/80
f 93/1/158 54/12/158 28/2/158
f 16/5/159 55/4/159 34/24/159
f 22/8/83 58/12/83 55/4/83
f 94/1/160 58/12/160 38/2/160
f 15/5/161 59/4/161 33/24/161
f 23/8/86 62/12/86 59/4/86
f 95/1/162 62/12/162 37/2/162
f 13/5/163 63/4/163 31/24/163
f 24/8/89 66/12/89 63/4/89
f 96/1/164 66/12/164 35/2/164
f 19/5/165 67/4/165 37/24/165
f 25/8/92 70/12/92 67/4/92
f 97/1/166 70/12/166 50/2/166
f 14/5/167 71/4/167 44/24/167
f 26/8/95 74/12/95 71/4/95
f 98/1/168 74/12/168 30/2/168
